<svg xmlns="http://www.w3.org/2000/svg" viewBox="0 0 437.78 330.49"><defs><style>.cls-1{fill:#ed1e26;}.cls-2{fill:#94f1ff;}</style></defs><g id="Layer_2" data-name="Layer 2"><g id="Layer_1-2" data-name="Layer 1"><path class="cls-1" d="M333.43,128.86h12.8c1.83,0,1.86,0,1.84,1.85-.05,3.79-.33,7.56-.7,11.33-.33,3.35-.89,6.65-1.31,10a5.62,5.62,0,0,1-.09.57c-.26,1.33-.63,1.58-2,1.3l-10-2-15.5-3.07c-.24,0-.48-.08-.71-.14-.43-.12-.56-.26-.5-.72.12-1,.24-2.09.42-3.13a53.88,53.88,0,0,0,.82-7.28c.13-2.58.36-5.16.56-7.74.05-.74.22-.9,1-.92,1.2,0,2.4,0,3.6,0h9.78Z"/><path class="cls-1" d="M318.12,109.1c-1.06,0-1.19-.08-1.42-1-.44-1.86-.85-3.74-1.32-5.59A67.4,67.4,0,0,0,312,92.57c-.73-1.71-.53-2,1.08-2.69l23.49-9.76c1.53-.64,1.76-.55,2.34,1a133.06,133.06,0,0,1,6.19,20.32,13.42,13.42,0,0,1,.25,1.41.73.73,0,0,1-.64.94c-1.07.25-2.15.46-3.23.67l-19.58,3.94c-1,.2-2,.43-2.95.62C318.62,109.06,318.28,109.08,318.12,109.1Z"/><path class="cls-1" d="M199.12,30.62a.73.73,0,0,1-.66.72c-.85.15-1.71.27-2.55.44a71.64,71.64,0,0,0-8,2.27,50.56,50.56,0,0,0-6.07,2.2c-.81.39-1.18.22-1.62-.6-.16-.3-.28-.61-.41-.92l-9.51-22.65c-.18-.44-.37-.89-.51-1.34a1,1,0,0,1,.46-1.23,8.94,8.94,0,0,1,1.3-.59,150.22,150.22,0,0,1,16.57-5.23c1.29-.33,2.6-.63,3.9-.95a5.47,5.47,0,0,1,.7-.16.83.83,0,0,1,1,.64c.13.41.21.84.3,1.26q.88,4.5,1.78,9l3.12,15.78C199,29.75,199.05,30.22,199.12,30.62Z"/><path class="cls-1" d="M180.44,222.21c-.08.22-.18.65-.35,1-1.73,3.79-3.19,7.7-4.81,11.55s-3.32,8-5,11.94c-.15.35-.29.71-.47,1a.77.77,0,0,1-1,.39,4.22,4.22,0,0,1-.67-.26,163.55,163.55,0,0,1-18-9.55c-.53-.33-1.05-.66-1.56-1-1-.73-1.07-1-.37-2.12l.24-.36,13.92-20.81c.21-.32.41-.65.65-1a.94.94,0,0,1,1.28-.28,7.64,7.64,0,0,1,.86.53,94.84,94.84,0,0,0,14.05,7.53c.31.13.61.28.92.42S180.52,221.7,180.44,222.21Z"/><path class="cls-1" d="M245.34,255.52a1.18,1.18,0,0,1-1.25-.76,7.75,7.75,0,0,1-.21-.83q-1.56-8-3.13-16l-1.89-9.59c-.24-1.19-.17-1.31,1-1.54a83.05,83.05,0,0,0,15.27-4.57c.35-.14.71-.28,1.07-.39a1,1,0,0,1,1.41.58,8.33,8.33,0,0,1,.39.93q4.59,11.1,9.16,22.2c.24.57.5,1.14.74,1.71.41,1,.31,1.21-.71,1.62-.84.34-1.7.64-2.55,1a124.82,124.82,0,0,1-17.35,5.17C246.6,255.21,245.9,255.39,245.34,255.52Z"/><path class="cls-1" d="M326.29,200.65l-.93-.62q-10.82-7.22-21.64-14.43c-1.75-1.16-1.63-.89-.55-2.57a102.66,102.66,0,0,0,7.42-13.78c.81-1.83.81-1.82,2.63-1.08l22.58,9.29c.48.2,1,.4,1.44.64.72.37.83.63.59,1.38a9.47,9.47,0,0,1-.37.93,125.66,125.66,0,0,1-10.24,19.1c-.2.32-.43.64-.65.94C326.52,200.53,326.42,200.56,326.29,200.65Z"/><path class="cls-1" d="M290.14,21.67a.76.76,0,0,1-.16.63L275.64,43.85A11.09,11.09,0,0,1,274.8,45a.92.92,0,0,1-1.29.24,13.57,13.57,0,0,1-1.37-.8,84.58,84.58,0,0,0-12.26-6.6c-.66-.28-1.34-.52-2-.82a.8.8,0,0,1-.5-1.16c.12-.37.27-.72.42-1.07l9.66-23.22c.75-1.79.84-1.83,2.64-1.06a129.86,129.86,0,0,1,18.64,9.9,10,10,0,0,1,1.06.74A1.81,1.81,0,0,1,290.14,21.67Z"/><path class="cls-1" d="M127.88,220a.94.94,0,0,1-.66-.22c-.25-.22-.5-.45-.73-.68a116.8,116.8,0,0,1-14.23-17.3c-.11-.16-.2-.32-.3-.49a.36.36,0,0,1,.11-.5c.26-.2.54-.39.82-.58l21-14.14a8.27,8.27,0,0,1,1-.61,1.35,1.35,0,0,1,1.81.34,4.73,4.73,0,0,1,.43.57,79.38,79.38,0,0,0,8.45,10.53l1.46,1.59c1.09,1.22,1.09,1.32,0,2.48-.81.88-1.63,1.77-2.47,2.62q-6.33,6.38-12.68,12.74c-1.05,1.05-2.08,2.12-3.12,3.17A1.18,1.18,0,0,1,127.88,220Z"/><path class="cls-1" d="M104.51,129.25H91.57c-1.75,0-2-.2-1.78-1.9.31-2.86.35-5.74.52-8.61.14-2.25.48-4.48.77-6.71.24-1.85.56-3.7.73-5.56.22-2.41,1.07-2.26,2.72-1.94,2.45.47,4.87,1,7.31,1.52l16.35,3.25a7.52,7.52,0,0,1,1.69.26c.65.28.82.48.78,1.19,0,.33-.09.66-.15,1-.47,2.6-.8,5.21-1.06,7.83-.27,2.77-.38,5.55-.38,8.33a3.35,3.35,0,0,1-.06.71.67.67,0,0,1-.69.61c-.33,0-.67,0-1,0h-12.8Z"/><path class="cls-1" d="M126.37,90.66a1.62,1.62,0,0,1-.88-.22c-2.44-1-4.88-2-7.32-3l-16.59-6.86a8.2,8.2,0,0,1-1.15-.57.92.92,0,0,1-.41-1.13,13.64,13.64,0,0,1,.51-1.34A141.22,141.22,0,0,1,109.23,61c.43-.7.85-1.39,1.29-2.08a4.92,4.92,0,0,1,.51-.69.86.86,0,0,1,1-.22c.33.18.67.36,1,.57l21,13.92a6.9,6.9,0,0,1,.92.69,1,1,0,0,1,.27,1.3,3.78,3.78,0,0,1-.44.75,85.62,85.62,0,0,0-7.56,14,12.55,12.55,0,0,1-.56,1.17C126.6,90.57,126.44,90.62,126.37,90.66Z"/><path class="cls-1" d="M163.09,46a.61.61,0,0,1-.14.25c-.3.24-.6.49-.91.7A87,87,0,0,0,149.6,57.17c-1.25,1.24-1.4,1.24-2.65,0l-18-18c-1.2-1.2-1.19-1.45.07-2.67a131.44,131.44,0,0,1,15.49-12.86c.62-.45,1.25-.89,1.89-1.31.43-.29.66-.23,1,.17.18.23.33.48.49.71l15,22.33C163,45.66,163.15,45.78,163.09,46Z"/><path class="cls-1" d="M99.82,178.45a4.37,4.37,0,0,1-.75-1.45,114,114,0,0,1-5.5-17.08c-.33-1.35-.66-2.7-.95-4.06-.21-1,0-1.36.95-1.58,1.31-.31,2.63-.54,3.94-.8l16.76-3.41c1.69-.34,3.38-.69,5.07-1,1.42-.27,1.6-.12,1.94,1.33.42,1.78.82,3.55,1.27,5.31a71.75,71.75,0,0,0,3.24,9.67,12.63,12.63,0,0,1,.44,1.22.89.89,0,0,1-.44,1.1,15.38,15.38,0,0,1-1.43.66l-22.59,9.29Z"/><path class="cls-1" d="M218.85,14.78V2.41c0-.33,0-.67,0-1,0-1.06.3-1.34,1.39-1.38.91,0,1.83,0,2.74,0a112.78,112.78,0,0,1,12.17,1c2.32.33,4.65.63,7,1,2.12.33,1.75.26,1.41,1.91-1.67,8.36-3.31,16.73-4.87,25.11-.31,1.7-.63,1.93-2.33,1.62a94,94,0,0,0-11-1.33,49.73,49.73,0,0,0-5.59-.3c-.64,0-.86-.21-.9-.85,0-.24,0-.48,0-.72V14.78Z"/><path class="cls-1" d="M326,56.94a1.69,1.69,0,0,1-.25.37l-1.18.82L305,71.29c-.75.51-1.49,1-2.26,1.53a.84.84,0,0,1-1.26-.19,5.09,5.09,0,0,1-.34-.47A96.66,96.66,0,0,0,291,59.7c-.27-.28-.54-.55-.78-.85a.78.78,0,0,1,.05-1.16c.19-.21.4-.41.6-.61l18.31-18.34c.1-.1.2-.21.31-.3.72-.67,1-.68,1.66.07a138.73,138.73,0,0,1,14.46,17.7C325.72,56.44,325.86,56.69,326,56.94Z"/><path class="cls-1" d="M310.12,220.46a4.39,4.39,0,0,1-1,1.16,128.71,128.71,0,0,1-15.72,13c-.55.38-1.09.78-1.66,1.13s-1,.34-1.48-.26c-.21-.26-.38-.55-.57-.83l-13.8-20.52a11.68,11.68,0,0,1-.76-1.21.87.87,0,0,1,.22-1.17,11.11,11.11,0,0,1,1-.79,93.6,93.6,0,0,0,8.27-6.45c1.33-1.18,2.6-2.41,3.89-3.63.35-.32.69-.65,1-.94a1.2,1.2,0,0,1,.67.39C293.68,203.67,309.29,219.4,310.12,220.46Z"/><path class="cls-1" d="M218.88,243.8v12.66c0,1.74.17,2-1.86,1.84-3.4-.28-6.8-.41-10.19-.69A82.93,82.93,0,0,1,195.31,256c-.33-.07-.67-.07-1-.16a.38.38,0,0,1-.23-.31,2.47,2.47,0,0,1,.06-.71l4.71-23.67c.2-1,.36-2,.57-3s.33-1,1.18-.83c1.42.22,2.83.46,4.25.7a86.11,86.11,0,0,0,12.31,1h.15c1.55,0,1.56,0,1.56,1.65C218.89,235.08,218.88,239.44,218.88,243.8Z"/><path class="cls-2" d="M219.08,126.87c.39-.29.31-.61.39-.87s.13-.46.18-.7a35.2,35.2,0,0,1,27.26-26.63A34.45,34.45,0,0,1,270,101.83c1.67.85,1.41.56,1.42,2.26,0,1.24,0,2.49,0,3.74,0,.68-.13.74-.75.35l-.85-.55A29.3,29.3,0,0,0,253,103.1a30.12,30.12,0,1,0,28.37,42.5,31.34,31.34,0,0,0,1.89-5.58,1.78,1.78,0,0,0,.06-1.14,4.31,4.31,0,0,0-1.56-.09H258.25c-1.75,0-1.58.18-1.59-1.65,0-1,0-1.92,0-2.88,0-.46.14-.58.61-.61h23.47l6.9,0c.34,0,.68,0,1,0a.43.43,0,0,1,.44.46c0,.39,0,.77,0,1.16a33.28,33.28,0,0,1-2.9,12.1c-5,10.87-13.31,17.85-25,20.37a35.26,35.26,0,0,1-42-29.15c0-.15,0-.29,0-.43s0-.29-.2-.31-.25.13-.27.26c-.12.61-.21,1.22-.32,1.84A35.2,35.2,0,1,1,176,98.81a34.36,34.36,0,0,1,26.87,4.82c.33.2.64.43,1,.63s.55.17.56-.23,0-.87,0-1.3q0-16.62,0-33.25a4.17,4.17,0,0,1,.11-1.6,24.24,24.24,0,0,1,3.3-.06c.3,0,.4.22.4.48,0,.44,0,.87,0,1.3v61.76c0,1,.05,1.92,0,2.88-.53,9-4.64,15.88-12.4,20.33a24.56,24.56,0,1,1-17.3-45.38,23.93,23.93,0,0,1,19.08,3.74,1.77,1.77,0,0,1,.93,1.77c-.07,1,0,2,0,3,0,.22,0,.45-.06.74a3.82,3.82,0,0,1-1.21-.92,20.16,20.16,0,0,0-15.61-4.93,20.71,20.71,0,1,0,21.88,26.6,19.64,19.64,0,0,0,.89-6V112.67a2.8,2.8,0,0,1,0-.29,1.74,1.74,0,0,0-.77-1.72,30.06,30.06,0,1,0,10.14,21.26c0-.86,0-1.72,0-2.58q0-29.81,0-59.6c0-.43,0-.87,0-1.3s.08-.62.55-.63c1.35,0,2.69,0,4,0,.37,0,.51.21.51.55v1.29q0,27.72,0,55.43A5.85,5.85,0,0,0,219.08,126.87Z"/><path class="cls-2" d="M271.23,121.8c-.39-.52-.64-.87-.91-1.2-4.71-5.85-10.83-8.64-18.3-8a20.5,20.5,0,0,0-18.16,15.68,20.66,20.66,0,0,0,36.95,16.87c.14-.2.26-.4.38-.61a.27.27,0,0,0-.24-.39c-.38,0-.77,0-1.15,0H258.29c-.39,0-.77,0-1.15,0a.44.44,0,0,1-.46-.45c0-1,0-2,0-3,0-.29.23-.4.49-.42H258l18,0h.72c.53,0,.64.19.48.74a9.71,9.71,0,0,1-.34.95c-3.41,8.34-9.47,13.71-18.33,15.42a24.56,24.56,0,0,1-11.27-47.77c8.66-2.35,16.41-.42,23.17,5.48.22.19.42.4.62.6a1.08,1.08,0,0,1,.31.63C271.44,116.73,271.36,120.9,271.23,121.8Z"/><path class="cls-2" d="M62.75,312v-16.4c0-.29,0-.58,0-.86,0-.94,0-1,1-1,3.84,0,7.67-.06,11.51,0a10.71,10.71,0,0,1,9.65,15.47c-.17.34-.37.67-.55,1a.31.31,0,0,0,.09.38c.26.22.54.41.8.62a10.28,10.28,0,0,1,3.86,10.63c-.91,4.32-3.7,7-8,8.18a10.28,10.28,0,0,1-2.71.29H63.31c-.33,0-.54-.16-.55-.51s0-.77,0-1.15Zm11.47,12.2h0c1.58,0,3.17,0,4.74,0a4.46,4.46,0,0,0,4.25-4.55,4.4,4.4,0,0,0-4.2-4.43c-3.16-.08-6.32,0-9.48,0h-.14a.48.48,0,0,0-.52.54c0,2.63,0,5.26,0,7.89,0,.46.13.58.62.59Zm-5.36-19.91h0v4.16a.49.49,0,0,0,.53.54c2.15,0,4.31.05,6.45-.06a4.51,4.51,0,0,0-.09-9c-2.11-.09-4.21,0-6.32,0-.44,0-.57.14-.57.62C68.85,301.82,68.86,303.07,68.86,304.31Z"/><path class="cls-2" d="M236.22,315.05a3.15,3.15,0,0,0,.71,1.21q4.4,6.42,8.8,12.81.33.48.63,1a.26.26,0,0,1-.22.4l-4,0a14.09,14.09,0,0,0-1.72,0,1.81,1.81,0,0,1-1.86-1c-2.94-4.32-5.92-8.62-8.88-12.93l-.66-.94a.68.68,0,0,0-.58-.36h-3.74c-.29,0-.41.19-.42.46s0,.77,0,1.15v12c0,.34,0,.67,0,1,0,.5-.13.63-.58.64h-5a.49.49,0,0,1-.53-.54c0-.38,0-.77,0-1.15V295.49c0-1.88-.19-1.7,1.69-1.7h13.39a13,13,0,0,1,3.56.4,10.69,10.69,0,0,1,1,20.28A5.18,5.18,0,0,0,236.22,315.05ZM229.74,300H225c-.67,0-.74.07-.75.73,0,2.54,0,5.08,0,7.63a2.62,2.62,0,0,0,0,.28.44.44,0,0,0,.45.45,5.72,5.72,0,0,0,.58,0h8.2a7.53,7.53,0,0,0,1.57-.15,4.54,4.54,0,0,0-1-9C232.62,300,231.18,300,229.74,300Z"/><path class="cls-2" d="M323.26,315.06a3.38,3.38,0,0,0,.76,1.34L332.66,329c.24.35.48.71.7,1.08a.26.26,0,0,1-.24.39c-1.39,0-2.78,0-4.17,0a9.78,9.78,0,0,1-2.7-.12c-.51-.69-1-1.37-1.52-2.08q-4.1-5.92-8.16-11.84l-.57-.83a.72.72,0,0,0-.59-.35h-3.74c-.29,0-.41.2-.41.47s0,.76,0,1.15c0,4,0,8,0,11.94,0,.33,0,.67,0,1,0,.5-.13.65-.57.65h-5c-.37,0-.5-.23-.51-.55s0-.67,0-1V295.37c0-1.75-.15-1.58,1.51-1.58H320.3a12,12,0,0,1,4.23.66,10.71,10.71,0,0,1,.07,20.07A3.54,3.54,0,0,0,323.26,315.06Zm-6.83-6h3.74a9.86,9.86,0,0,0,1.44-.08,4.56,4.56,0,0,0,4-4.68,4.51,4.51,0,0,0-4.37-4.33c-3.11-.07-6.23,0-9.35,0-.54,0-.62.08-.63.56q0,4,0,7.92c0,.53.11.62.72.63Z"/><path class="cls-2" d="M337.09,312.17a18.31,18.31,0,1,1,18.31,18.26A18.22,18.22,0,0,1,337.09,312.17Zm18.28,12.11a12.18,12.18,0,1,0-.05-24.35,12.18,12.18,0,0,0,.05,24.35Z"/><path class="cls-2" d="M111.82,293.79a18.32,18.32,0,1,1-18.25,18.5A18.42,18.42,0,0,1,111.82,293.79Zm.11,6.16a12.18,12.18,0,1,0,0,24.35,12.18,12.18,0,0,0,0-24.35Z"/><path class="cls-2" d="M0,312v-17c0-1.22-.1-1.28,1.25-1.27h9.07a17.76,17.76,0,0,1,12.29,4.43c5.57,5,7.66,11.23,5.8,18.45S21.84,328.19,14.71,330a15.58,15.58,0,0,1-3.84.46c-3.22,0-6.43,0-9.64,0H.65c-.53,0-.62-.12-.64-.71,0-.39,0-.77,0-1.15Zm6.12-.09v10.65c0,.33,0,.67,0,1,0,.54.15.68.69.69,1.54,0,3.07,0,4.61,0a8.28,8.28,0,0,0,1.57-.16,12.18,12.18,0,0,0,.46-23.84c-2.27-.52-4.58-.24-6.88-.29a.43.43,0,0,0-.44.47c0,.38,0,.76,0,1.15Z"/><path class="cls-2" d="M293.21,303.11c-.38-.07-.59-.36-.85-.56a12.18,12.18,0,1,0-.74,19.7,1.25,1.25,0,0,0,.65-1.18c0-1.77,0-3.55,0-5.32a.48.48,0,0,0-.52-.54c-1.68,0-3.36,0-5,0-2.18,0-1.87.28-1.89-1.91,0-1.2,0-2.4,0-3.6,0-.49.12-.6.58-.63.29,0,.58,0,.86,0H296.9l1,0a.44.44,0,0,1,.45.46c0,.24,0,.48,0,.72,0,4.41,0,8.83,0,13.24a2.2,2.2,0,0,1-.74,1.76,18.33,18.33,0,1,1-1.25-27.32c.26.21.51.44.75.67a.32.32,0,0,1,0,.4,1.35,1.35,0,0,1-.26.33q-1.68,1.79-3.37,3.56A1.31,1.31,0,0,1,293.21,303.11Z"/><path class="cls-2" d="M139.4,308.29c0,.75,0,1.21,0,1.67v18.85c0,1.79.19,1.63-1.61,1.64h-3.88c-.47,0-.6-.14-.62-.58s0-.68,0-1V295.47c0-.47,0-.93,0-1.47a1.71,1.71,0,0,1,1,.66l11.22,11L155,315a2,2,0,0,0,1,.72,2.94,2.94,0,0,0,.09-1.1v-19c0-.34,0-.68,0-1,0-.7.08-.79.72-.79q2.37,0,4.74,0c.58,0,.65.09.67.69,0,.28,0,.57,0,.86q0,16.75,0,33.53a2.47,2.47,0,0,1-.19,1.48c-2.58-2.45-5.05-4.91-7.55-7.35l-7.41-7.24C144.58,313.34,142.11,310.9,139.4,308.29Z"/><path class="cls-2" d="M34.33,312.11V295.42c0-.39,0-.77,0-1.15a.45.45,0,0,1,.46-.46c.33,0,.67,0,1,0H55.66c.19,0,.39,0,.58,0,.93,0,1,0,1,1,0,1.49,0,3,0,4.46,0,.6-.11.69-.66.71H41.43c-.91,0-.92,0-.92,1,0,1.78,0,3.55,0,5.33a6.33,6.33,0,0,0,.17,2.67,10.05,10.05,0,0,0,2.57.1c3.26,0,6.52,0,9.78,0,.38,0,.77,0,1.15,0a.43.43,0,0,1,.44.46c0,1.72,0,3.45,0,5.18a.43.43,0,0,1-.44.46c-.38,0-.77,0-1.15,0H41a.41.41,0,0,0-.43.45c0,.1,0,.2,0,.29,0,2.54,0,5.09,0,7.63,0,.6.08.68.66.68,1,0,2,0,3,0H55.56c.33,0,.67,0,1,0s.63.15.63.59c0,1.68,0,3.36,0,5a.49.49,0,0,1-.54.53H35.78c-1.54,0-1.45.08-1.45-1.51Z"/><path class="cls-2" d="M411.54,312.09V295.41c0-.38,0-.77,0-1.15a.45.45,0,0,1,.46-.45c.24,0,.48,0,.72,0,4.7,0,9.39,0,14.09,0a11.88,11.88,0,0,1,3.82.61,10.69,10.69,0,0,1-1.87,20.65,15.3,15.3,0,0,1-2.14.16h-7.48c-.34,0-.67,0-1,0s-.41.19-.42.46,0,.77,0,1.15v11.79c0,.39,0,.77,0,1.15,0,.54-.14.66-.71.66-1.58,0-3.16,0-4.74,0-.58,0-.68-.11-.7-.66,0-.38,0-.77,0-1.15ZM423,300h-2.87c-.67,0-1.34,0-2,0a.35.35,0,0,0-.36.36,5.78,5.78,0,0,0,0,.58v7.18a3.58,3.58,0,0,0,0,.57.42.42,0,0,0,.38.37,5.78,5.78,0,0,0,.72,0h7.76a9.32,9.32,0,0,0,1.29-.09,4.54,4.54,0,0,0,2.07-8.09,4.18,4.18,0,0,0-2.66-.93Z"/><path class="cls-2" d="M386.07,294a4.86,4.86,0,0,1,.08,1.53V316.1a10.27,10.27,0,0,0,.27,2.71,7.41,7.41,0,0,0,14.45-.52A12.55,12.55,0,0,0,401,316V295.43c0-1.79-.18-1.64,1.6-1.64,1.29,0,2.59,0,3.88,0,.48,0,.6.14.62.59,0,.23,0,.48,0,.71q0,10.88,0,21.73a12.91,12.91,0,0,1-2.88,8.4c-3.57,4.37-8.22,6.13-13.7,4.85s-8.95-4.92-10.25-10.49a14.57,14.57,0,0,1-.26-3.29V295.58c0-.28,0-.57,0-.86,0-.88,0-.92.86-.93,1,0,2,0,3,0h1.44A.85.85,0,0,1,386.07,294Z"/><path class="cls-2" d="M198.94,330.45c-2.15,0-4.07,0-6,0a.84.84,0,0,1-.86-.61c-.66-1.59-1.35-3.17-2-4.78a1,1,0,0,0-1.08-.71H178.1a1,1,0,0,0-1.08.71c-.6,1.51-1.28,3-1.87,4.51a1.16,1.16,0,0,1-1.26.89c-1.63-.06-3.26,0-4.89,0-.23,0-.48.06-.69-.18a2,2,0,0,1,.07-.39q7.53-18,15.11-36.12c.52.3.57.81.73,1.21q4.5,10.74,9,21.5l5.19,12.47C198.55,329.37,198.71,329.82,198.94,330.45Zm-15.37-21c-.5,1.21-.93,2.22-1.35,3.23q-1,2.44-2.05,4.9c-.19.47-.11.58.41.59l6.17,0c.13,0,.3,0,.33-.36C186,315.17,184.89,312.38,183.57,309.47Z"/><path class="cls-2" d="M204.6,312.1V295.56c0-.39,0-.77,0-1.15s.13-.6.6-.61c1,0,1.92,0,2.87,0a6.46,6.46,0,0,1,2.55.17,9.8,9.8,0,0,1,.1,2.42q0,16,0,31.93v.58c0,1.69.13,1.55-1.54,1.55h-4a.48.48,0,0,1-.55-.51c0-.38,0-.77,0-1.15Z"/></g></g></svg>